<svg id="Layer_5" data-name="Layer 5" xmlns="http://www.w3.org/2000/svg" viewBox="0 0 682.96 620.13"><defs><style>.cls-1{fill:#191919;stroke:#fff;stroke-miterlimit:10;stroke-width:20px;}</style></defs><title>logo_white</title><path class="cls-1" d="M330.24,541.07c-99.84,0-181.07-81.23-181.07-181.07S230.4,178.93,330.24,178.93c72.16,0,134.59,42.45,163.66,103.68l106.93-52.43a299.84,299.84,0,1,0,0,259.64L493.9,437.39C464.83,498.62,402.4,541.07,330.24,541.07Z" transform="translate(-20.17 -49.93)"/><path class="cls-1" d="M374.24,541.07c-99.84,0-181.07-81.23-181.07-181.07S274.4,178.93,374.24,178.93c72.16,0,134.59,42.45,163.66,103.68l106.93-52.43a299.84,299.84,0,1,0,0,259.64L537.9,437.39C508.83,498.62,446.4,541.07,374.24,541.07Z" transform="translate(-20.17 -49.93)"/><path class="cls-1" d="M419.24,541.07c-99.84,0-181.07-81.23-181.07-181.07S319.4,178.93,419.24,178.93c72.16,0,134.59,42.45,163.66,103.68l106.93-52.43a299.84,299.84,0,1,0,0,259.64L582.9,437.39C553.83,498.62,491.4,541.07,419.24,541.07Z" transform="translate(-20.17 -49.93)"/></svg>