<svg xmlns="http://www.w3.org/2000/svg" viewBox="0 0 636.9 581.1"><path class="cls-1" d="M22.8 177.7a290.3 290.3 0 00152.9 379.5 310.2 310.2 0 010-533.3A290.9 290.9 0 0022.8 177.6zM458.2 199.9l15.7-7.7a171.8 171.8 0 00-79.8-61.8 192 192 0 0164 69.5zM473.9 389l-15.7-7.7a192 192 0 01-64.1 69.5 169.7 169.7 0 0032.5-16.4A172 172 0 00474 389zM502.2 199.9l17-8.3a172.8 172.8 0 00-47.3-45.2 170.6 170.6 0 00-37-18l2.6 1.6a192 192 0 0164.7 69.9z"/><path class="cls-1" d="M129 85.5A290.2 290.2 0 00221 557.8l5.6 2.3a309.7 309.7 0 010-539l-5.6 2.2A289 289 0 00129 85.5zM437.5 451.2l-2.5 1.6a170.5 170.5 0 0037-18 172.8 172.8 0 0047.1-45.3l-17-8.2a192 192 0 01-64.6 69.9z"/><path class="cls-1" d="M482.2 450.7a189.6 189.6 0 01-103.1 30.4c-105.1 0-190.6-85.5-190.6-190.5S274 100 379.1 100a189.6 189.6 0 01103.1 30.4 191.5 191.5 0 0164.8 70.2l89.9-44.1a290.4 290.4 0 100 268.3l-90-44.1a191.4 191.4 0 01-64.7 70z"/></svg>
